<svg width="24" height="24" viewBox="0 0 24 24" fill="none" xmlns="http://www.w3.org/2000/svg">
<path d="M11.5 20L17.5 4L1.5 10L8.5 13L11.5 20Z" fill="black"/>
<path d="M18.674 19.724C18.674 19.332 18.744 19.0053 18.884 18.744C19.0333 18.4827 19.2153 18.2587 19.43 18.072C19.654 17.8853 19.892 17.722 20.144 17.582C20.4053 17.4327 20.6433 17.2787 20.858 17.12C21.082 16.9613 21.264 16.7793 21.404 16.574C21.5533 16.3593 21.628 16.0933 21.628 15.776C21.628 15.3747 21.4647 15.0527 21.138 14.81C20.8207 14.558 20.3353 14.432 19.682 14.432C19.178 14.432 18.7487 14.488 18.394 14.6C18.0393 14.712 17.7127 14.8613 17.414 15.048V13.466C17.6847 13.354 18.0253 13.2607 18.436 13.186C18.856 13.1113 19.3273 13.074 19.85 13.074C20.9047 13.074 21.7167 13.2793 22.286 13.69C22.8647 14.0913 23.154 14.7493 23.154 15.664C23.154 16.112 23.0747 16.49 22.916 16.798C22.7667 17.0967 22.5753 17.3533 22.342 17.568C22.118 17.7827 21.8707 17.9693 21.6 18.128C21.3387 18.2773 21.0913 18.4313 20.858 18.59C20.634 18.7393 20.4427 18.9027 20.284 19.08C20.1347 19.2573 20.06 19.472 20.06 19.724H18.674ZM18.324 22.146C18.324 21.8567 18.3987 21.6187 18.548 21.432C18.7067 21.236 18.9773 21.138 19.36 21.138C19.7427 21.138 20.0133 21.236 20.172 21.432C20.3307 21.6187 20.41 21.8567 20.41 22.146C20.41 22.4353 20.3307 22.678 20.172 22.874C20.0227 23.0607 19.752 23.154 19.36 23.154C18.9867 23.154 18.7207 23.056 18.562 22.86C18.4033 22.664 18.324 22.426 18.324 22.146Z" fill="black"/>
</svg>
