<svg width="24" height="24" viewBox="0 0 24 24" fill="none" xmlns="http://www.w3.org/2000/svg">
<path d="M5.95654 1.07057C6.60847 0.744462 7.35829 0.66247 8.05811 0.86647C10.5778 1.60098 13.0023 2.55961 15.3081 3.71901C16.5897 4.36353 17.3513 5.7015 17.3511 7.136L17.3501 9.94655C18.4698 10.334 19.5684 10.7664 20.644 11.2415C22.0181 11.8483 22.8534 13.2384 22.853 14.7405L22.8501 22.8499H1.1499V4.71022C1.15002 3.95293 1.57807 3.26094 2.25537 2.92213L5.95654 1.07057ZM8.39307 3.10573C7.94681 2.9716 7.50049 3.3077 7.50049 3.7737V21.1497H10.6499V12.2063C10.65 11.4511 11.076 10.76 11.7505 10.4202L13.4321 9.57253C14.0905 9.24084 14.8496 9.15926 15.5562 9.3694C15.5871 9.37862 15.618 9.38843 15.6489 9.39772L15.647 6.5735C15.6466 6.2069 15.4458 5.86882 15.1196 5.70143C12.9806 4.60486 10.7313 3.80879 8.39307 3.10573ZM15.8979 11.6008C15.4499 11.4682 15.0008 11.8045 15.0005 12.2717V21.1497H21.1499L21.145 14.1223C21.1446 13.7382 20.9249 13.3864 20.5737 13.2307C19.0623 12.5608 17.5012 12.0764 15.8979 11.6008Z" fill="white"/>
</svg>
